<svg xmlns="http://www.w3.org/2000/svg" xmlns:xlink="http://www.w3.org/1999/xlink" zoomAndPan="magnify" preserveAspectRatio="xMidYMid meet" version="1.0" viewBox="-4.19 -3.93 59.31 28.25"><defs><g/><clipPath id="36198741bc"><path d="M 4.914062 5.175781 L 15 5.175781 L 15 15.335938 L 4.914062 15.335938 Z M 4.914062 5.175781 " clip-rule="nonzero"/></clipPath><clipPath id="a0ac41972f"><path d="M 0.808594 1.070312 L 18.957031 1.070312 L 18.957031 19.21875 L 0.808594 19.21875 Z M 0.808594 1.070312 " clip-rule="nonzero"/></clipPath><clipPath id="f8360d2c01"><path d="M 9.933594 1.070312 C 4.894531 1.070312 0.808594 5.15625 0.808594 10.195312 C 0.808594 15.234375 4.894531 19.320312 9.933594 19.320312 C 14.972656 19.320312 19.058594 15.234375 19.058594 10.195312 C 19.058594 5.15625 14.972656 1.070312 9.933594 1.070312 Z M 9.933594 1.070312 " clip-rule="nonzero"/></clipPath><clipPath id="be880ee3b3"><path d="M 21 0 L 56.699219 0 L 56.699219 20 L 21 20 Z M 21 0 " clip-rule="nonzero"/></clipPath><clipPath id="eafda3850f"><rect x="0" width="36" y="0" height="20"/></clipPath></defs><g clip-path="url(#36198741bc)"><path fill="#ffffff" d="M 9.933594 5.175781 C 9.605469 5.175781 9.277344 5.207031 8.953125 5.273438 C 8.632812 5.335938 8.316406 5.433594 8.011719 5.558594 C 7.707031 5.683594 7.417969 5.839844 7.144531 6.023438 C 6.871094 6.207031 6.617188 6.414062 6.386719 6.644531 C 6.152344 6.878906 5.945312 7.132812 5.761719 7.40625 C 5.578125 7.679688 5.421875 7.96875 5.296875 8.273438 C 5.171875 8.578125 5.074219 8.890625 5.011719 9.214844 C 4.945312 9.539062 4.914062 9.867188 4.914062 10.195312 C 4.914062 10.523438 4.945312 10.851562 5.011719 11.171875 C 5.074219 11.496094 5.171875 11.8125 5.296875 12.113281 C 5.421875 12.417969 5.578125 12.707031 5.761719 12.984375 C 5.945312 13.257812 6.152344 13.511719 6.386719 13.742188 C 6.617188 13.976562 6.871094 14.183594 7.144531 14.367188 C 7.417969 14.550781 7.707031 14.703125 8.011719 14.832031 C 8.316406 14.957031 8.632812 15.050781 8.953125 15.117188 C 9.277344 15.179688 9.605469 15.214844 9.933594 15.214844 C 10.261719 15.214844 10.589844 15.179688 10.914062 15.117188 C 11.234375 15.050781 11.550781 14.957031 11.855469 14.832031 C 12.15625 14.703125 12.449219 14.550781 12.722656 14.367188 C 12.996094 14.183594 13.25 13.976562 13.480469 13.742188 C 13.714844 13.511719 13.921875 13.257812 14.105469 12.984375 C 14.289062 12.707031 14.445312 12.417969 14.570312 12.113281 C 14.695312 11.8125 14.789062 11.496094 14.855469 11.171875 C 14.917969 10.851562 14.953125 10.523438 14.953125 10.195312 C 14.949219 9.867188 14.917969 9.539062 14.855469 9.214844 C 14.789062 8.894531 14.695312 8.578125 14.566406 8.277344 C 14.441406 7.972656 14.285156 7.683594 14.105469 7.410156 C 13.921875 7.132812 13.710938 6.882812 13.480469 6.648438 C 13.246094 6.414062 12.992188 6.207031 12.71875 6.023438 C 12.445312 5.839844 12.15625 5.6875 11.851562 5.558594 C 11.546875 5.433594 11.234375 5.339844 10.910156 5.273438 C 10.589844 5.210938 10.261719 5.175781 9.933594 5.175781 Z M 12.121094 10.496094 L 9.148438 12.578125 C 9.027344 12.660156 8.898438 12.671875 8.765625 12.601562 C 8.636719 12.53125 8.570312 12.425781 8.570312 12.277344 L 8.570312 8.113281 C 8.570312 7.964844 8.636719 7.855469 8.765625 7.789062 C 8.898438 7.71875 9.027344 7.726562 9.148438 7.8125 L 12.121094 9.894531 C 12.167969 9.929688 12.207031 9.972656 12.234375 10.023438 C 12.261719 10.078125 12.277344 10.132812 12.277344 10.195312 C 12.277344 10.253906 12.261719 10.3125 12.234375 10.363281 C 12.207031 10.417969 12.167969 10.460938 12.121094 10.496094 Z M 12.121094 10.496094 " fill-opacity="1" fill-rule="nonzero"/></g><g clip-path="url(#a0ac41972f)"><g clip-path="url(#f8360d2c01)"><path stroke-linecap="butt" transform="matrix(0.725806, 0, 0, 0.725806, 0.810483, 1.071923)" fill="none" stroke-linejoin="miter" d="M 12.569619 -0.00221832 C 5.626911 -0.00221832 -0.00260288 5.627296 -0.00260288 12.570004 C -0.00260288 19.512712 5.626911 25.142226 12.569619 25.142226 C 19.512328 25.142226 25.141842 19.512712 25.141842 12.570004 C 25.141842 5.627296 19.512328 -0.00221832 12.569619 -0.00221832 Z M 12.569619 -0.00221832 " stroke="#ffffff" stroke-width="10" stroke-opacity="1" stroke-miterlimit="4"/></g></g><g clip-path="url(#be880ee3b3)"><g transform="matrix(1, 0, 0, 1, 21, 0.000000000000005662)"><g clip-path="url(#eafda3850f)"><g fill="#ffffff" fill-opacity="1"><g transform="translate(0.43693, 16.136224)"><g><path d="M 0.921875 0 L 2.695312 0 L 2.695312 -8.878906 L 4.773438 0 L 5.824219 0 L 7.921875 -8.878906 L 7.921875 0 L 9.691406 0 L 9.691406 -12.0625 L 6.996094 -12.0625 L 5.316406 -4.484375 L 3.652344 -12.0625 L 0.921875 -12.0625 Z M 0.921875 0 "/></g></g></g><g fill="#ffffff" fill-opacity="1"><g transform="translate(11.049793, 16.136224)"><g><path d="M 4.484375 0 L 6.167969 0 L 6.167969 -8.988281 L 4.484375 -8.988281 L 4.484375 -2.261719 C 4.070312 -1.683594 3.5625 -1.355469 3.109375 -1.355469 C 2.621094 -1.355469 2.460938 -1.609375 2.460938 -2.40625 L 2.460938 -8.988281 L 0.777344 -8.988281 L 0.777344 -1.972656 C 0.777344 -0.542969 1.246094 0.125 2.242188 0.125 C 3.039062 0.125 3.707031 -0.253906 4.484375 -1.15625 Z M 4.484375 0 "/></g></g></g><g fill="#ffffff" fill-opacity="1"><g transform="translate(18.010528, 16.136224)"><g><path d="M 0.363281 -2.351562 C 0.941406 -0.613281 1.898438 0.179688 3.4375 0.179688 C 5.097656 0.179688 6.203125 -0.886719 6.203125 -2.476562 C 6.203125 -3.144531 5.96875 -3.761719 5.570312 -4.175781 C 5.207031 -4.558594 4.753906 -4.847656 3.742188 -5.40625 C 2.476562 -6.09375 2.222656 -6.347656 2.222656 -6.835938 C 2.222656 -7.304688 2.585938 -7.628906 3.109375 -7.628906 C 3.761719 -7.628906 4.160156 -7.269531 4.503906 -6.328125 L 6.039062 -6.996094 C 5.480469 -8.480469 4.558594 -9.167969 3.128906 -9.167969 C 1.609375 -9.167969 0.507812 -8.117188 0.507812 -6.65625 C 0.507812 -6.003906 0.742188 -5.386719 1.15625 -4.953125 C 1.554688 -4.539062 1.898438 -4.304688 3.128906 -3.617188 C 4.105469 -3.09375 4.394531 -2.765625 4.394531 -2.261719 C 4.394531 -1.734375 3.996094 -1.355469 3.4375 -1.355469 C 2.730469 -1.355469 2.296875 -1.789062 1.933594 -2.894531 Z M 0.363281 -2.351562 "/></g></g></g><g fill="#ffffff" fill-opacity="1"><g transform="translate(24.555429, 16.136224)"><g><path d="M 0.777344 0 L 2.460938 0 L 2.460938 -8.988281 L 0.777344 -8.988281 Z M 0.777344 -10.308594 L 2.460938 -10.308594 L 2.460938 -12.0625 L 0.777344 -12.0625 Z M 0.777344 -10.308594 "/></g></g></g><g fill="#ffffff" fill-opacity="1"><g transform="translate(27.8098, 16.136224)"><g><path d="M 4.628906 -2.929688 C 4.628906 -1.84375 4.285156 -1.355469 3.542969 -1.355469 C 3.128906 -1.355469 2.785156 -1.535156 2.621094 -1.84375 C 2.460938 -2.152344 2.40625 -2.550781 2.40625 -3.398438 L 2.40625 -5.570312 C 2.40625 -7.140625 2.675781 -7.628906 3.542969 -7.628906 C 4.285156 -7.628906 4.628906 -7.160156 4.628906 -6.113281 L 4.628906 -5.875 L 6.3125 -5.875 L 6.3125 -6.203125 C 6.3125 -7.25 6.128906 -7.867188 5.679688 -8.355469 C 5.191406 -8.898438 4.464844 -9.167969 3.542969 -9.167969 C 2.511719 -9.167969 1.734375 -8.84375 1.285156 -8.226562 C 0.867188 -7.667969 0.722656 -7.015625 0.722656 -5.785156 L 0.722656 -3.183594 C 0.722656 -1.953125 0.867188 -1.320312 1.285156 -0.757812 C 1.734375 -0.144531 2.53125 0.179688 3.542969 0.179688 C 4.464844 0.179688 5.191406 -0.109375 5.679688 -0.652344 C 6.128906 -1.140625 6.3125 -1.773438 6.3125 -2.839844 L 6.3125 -3.183594 L 4.628906 -3.183594 Z M 4.628906 -2.929688 "/></g></g></g></g></g></g></svg>