<svg width="77" height="26" xmlns="http://www.w3.org/2000/svg" zoomAndPan="magnify" preserveAspectRatio="xMidYMid meet" version="1.0">
 <g id="Layer_1">
  <title>Layer 1</title>
  <g stroke-width="5">
   <defs transform="translate(-1 0) translate(-1 0) translate(-1 0) translate(-1 0) translate(-1 0) translate(-1 0) translate(-1 0) translate(0 3.875) translate(11.3431 0) translate(0 -291) translate(0 0.125) translate(-373 0) translate(0.15683 0) translate(372.035 0) translate(0 289.805)">
    <g/>
    <clipPath id="svg_5">
     <path clip-rule="nonzero" d="m8.44861,7.98047l10.08594,0l0,10.16016l-10.08594,0l0,-10.16016zm0,0"/>
    </clipPath>
    <clipPath id="svg_3">
     <path clip-rule="nonzero" d="m4.34314,3.875l18.14844,0l0,18.14844l-18.14844,0l0,-18.14844zm0,0"/>
    </clipPath>
    <clipPath id="svg_4">
     <path clip-rule="nonzero" d="m13.46814,3.875c-5.03906,0 -9.125,4.08594 -9.125,9.125c0,5.03907 4.08594,9.125 9.125,9.125c5.03907,0 9.125,-4.08593 9.125,-9.125c0,-5.03906 -4.08593,-9.125 -9.125,-9.125zm0,0"/>
    </clipPath>
    <clipPath id="svg_1">
     <path clip-rule="nonzero" d="m24.53455,2.80469l35.69922,0l0,20l-35.69922,0l0,-20zm0,0"/>
    </clipPath>
    <clipPath id="svg_2">
     <rect height="20" y="2.80469" width="36" x="3.53455"/>
    </clipPath>
   </defs>
   <g clip-path="url(#svg_5)">
    <path fill-rule="nonzero" d="m13.46814,7.98047c-0.32812,0 -0.65625,0.03125 -0.98046,0.09766c-0.32032,0.0625 -0.63672,0.16015 -0.94141,0.28515c-0.30469,0.125 -0.59375,0.28125 -0.86719,0.46485c-0.27344,0.18359 -0.52734,0.39062 -0.75781,0.62109c-0.23438,0.23438 -0.44141,0.48828 -0.625,0.76172c-0.18359,0.27344 -0.33984,0.5625 -0.46484,0.86719c-0.125,0.30469 -0.22266,0.61719 -0.28516,0.9414c-0.06641,0.32422 -0.09766,0.65235 -0.09766,0.98047c0,0.32813 0.03125,0.65625 0.09766,0.97657c0.0625,0.32421 0.16016,0.64062 0.28516,0.9414c0.125,0.30469 0.28125,0.59375 0.46484,0.8711c0.18359,0.27343 0.39062,0.52734 0.625,0.75781c0.23047,0.23437 0.48437,0.4414 0.75781,0.625c0.27344,0.18359 0.5625,0.33594 0.86719,0.46484c0.30469,0.125 0.62109,0.21875 0.94141,0.28516c0.32421,0.0625 0.65234,0.09765 0.98046,0.09765c0.32813,0 0.65625,-0.03515 0.98047,-0.09765c0.32032,-0.06641 0.63672,-0.16016 0.94141,-0.28516c0.30078,-0.1289 0.59375,-0.28125 0.86719,-0.46484c0.27343,-0.1836 0.52734,-0.39063 0.75781,-0.625c0.23437,-0.23047 0.44141,-0.48438 0.625,-0.75781c0.18359,-0.27735 0.33984,-0.56641 0.46484,-0.8711c0.125,-0.30078 0.21875,-0.61719 0.28516,-0.9414c0.0625,-0.32032 0.09766,-0.64844 0.09766,-0.97657c-0.00391,-0.32812 -0.03516,-0.65625 -0.09766,-0.98047c-0.06641,-0.32031 -0.16016,-0.63671 -0.28906,-0.9375c-0.125,-0.30468 -0.28125,-0.59375 -0.46094,-0.86718c-0.18359,-0.27735 -0.39453,-0.52735 -0.625,-0.76172c-0.23438,-0.23438 -0.48828,-0.44141 -0.76172,-0.625c-0.27344,-0.1836 -0.5625,-0.33594 -0.86719,-0.46485c-0.30468,-0.125 -0.61718,-0.21875 -0.9414,-0.28515c-0.32032,-0.0625 -0.64844,-0.09766 -0.97657,-0.09766zm2.1875,5.32031l-2.97265,2.08204c-0.1211,0.08203 -0.25,0.09375 -0.38281,0.02343c-0.12891,-0.07031 -0.19532,-0.17578 -0.19532,-0.32422l0,-4.16406c0,-0.14844 0.06641,-0.25781 0.19532,-0.32422c0.13281,-0.07031 0.26171,-0.0625 0.38281,0.02344l2.97265,2.08203c0.04688,0.03516 0.08594,0.07813 0.11329,0.12891c0.02734,0.05469 0.04296,0.10937 0.04296,0.17187c0,0.0586 -0.01562,0.11719 -0.04296,0.16797c-0.02735,0.05469 -0.06641,0.09766 -0.11329,0.13281zm0,0" fill="#ffffff"/>
   </g>
   <g clip-path="url(#svg_3)">
    <g clip-path="url(#svg_4)">
     <path stroke-miterlimit="4" stroke-width="10" stroke="#ffffff" d="m17.43945,3.86202c-6.94271,0 -12.57222,5.62952 -12.57222,12.57222c0,6.94271 5.62951,12.57223 12.57222,12.57223c6.94271,0 12.57222,-5.62952 12.57222,-12.57223c0,-6.9427 -5.62951,-12.57222 -12.57222,-12.57222zm0,0" fill="none" transform="matrix(0.725806 0 0 0.725806 0.810483 1.07192)"/>
    </g>
   </g>
   <g clip-path="url(#svg_1)">
    <g transform="matrix(1 0 0 1 21 5.66200e-15)">
     <g clip-path="url(#svg_2)">
      <g fill="#ffffff">
       <g transform="translate(0.43693 16.1362)">
        <g>
         <path d="m4.45643,2.80469l1.77343,0l0,-8.87891l2.07813,8.87891l1.05078,0l2.09766,-8.87891l0,8.87891l1.76953,0l0,-12.0625l-2.69532,0l-1.67968,7.57812l-1.66407,-7.57812l-2.73046,0l0,12.0625zm0,0"/>
        </g>
       </g>
      </g>
      <g fill="#ffffff">
       <g transform="translate(11.0498 16.1362)">
        <g>
         <path d="m8.01893,2.80469l1.68359,0l0,-8.98828l-1.68359,0l0,6.72656c-0.41407,0.57813 -0.92188,0.90625 -1.375,0.90625c-0.48829,0 -0.64844,-0.25391 -0.64844,-1.05078l0,-6.58203l-1.6836,0l0,7.01562c0,1.42969 0.46875,2.09766 1.46485,2.09766c0.79687,0 1.46484,-0.37891 2.24219,-1.28125l0,1.15625zm0,0"/>
        </g>
       </g>
      </g>
      <g fill="#ffffff">
       <g transform="translate(18.0105 16.1362)">
        <g>
         <path d="m3.89783,0.45313c0.57813,1.73828 1.53516,2.53125 3.07422,2.53125c1.66016,0 2.76563,-1.06641 2.76563,-2.65625c0,-0.66797 -0.23438,-1.28516 -0.63282,-1.69922c-0.36328,-0.38281 -0.8164,-0.67188 -1.82812,-1.23047c-1.26563,-0.6875 -1.51953,-0.94141 -1.51953,-1.42969c0,-0.46875 0.36328,-0.79297 0.88672,-0.79297c0.65234,0 1.05078,0.35938 1.39453,1.30078l1.53515,-0.66796c-0.55859,-1.48438 -1.48047,-2.17188 -2.91015,-2.17188c-1.51953,0 -2.6211,1.05078 -2.6211,2.51172c0,0.65234 0.23438,1.26953 0.64844,1.70312c0.39844,0.41407 0.74219,0.64844 1.97266,1.33594c0.97656,0.52344 1.26562,0.85156 1.26562,1.35547c0,0.52734 -0.39844,0.90625 -0.95703,0.90625c-0.70703,0 -1.14062,-0.43359 -1.50391,-1.53906l-1.57031,0.54297zm0,0"/>
        </g>
       </g>
      </g>
      <g fill="#ffffff">
       <g transform="translate(24.5554 16.1362)">
        <g>
         <path d="m4.31189,2.80469l1.6836,0l0,-8.98828l-1.6836,0l0,8.98828zm0,-10.30859l1.6836,0l0,-1.75391l-1.6836,0l0,1.75391zm0,0"/>
        </g>
       </g>
      </g>
      <g fill="#ffffff">
       <g transform="translate(27.8098 16.1362)">
        <g>
         <path d="m8.16346,-0.125c0,1.08594 -0.34375,1.57422 -1.08594,1.57422c-0.41406,0 -0.75781,-0.17969 -0.92188,-0.48828c-0.16015,-0.30859 -0.21484,-0.70703 -0.21484,-1.55469l0,-2.17187c0,-1.57032 0.26953,-2.0586 1.13672,-2.0586c0.74219,0 1.08594,0.46875 1.08594,1.51563l0,0.23828l1.68359,0l0,-0.32813c0,-1.04687 -0.18359,-1.66406 -0.63281,-2.15234c-0.48828,-0.54297 -1.21485,-0.8125 -2.13672,-0.8125c-1.03125,0 -1.80859,0.32422 -2.25781,0.94141c-0.41797,0.55859 -0.5625,1.21093 -0.5625,2.4414l0,2.60157c0,1.23046 0.14453,1.86328 0.5625,2.42578c0.44922,0.61328 1.24609,0.9375 2.25781,0.9375c0.92187,0 1.64844,-0.28907 2.13672,-0.83203c0.44922,-0.48829 0.63281,-1.1211 0.63281,-2.1875l0,-0.34375l-1.68359,0l0,0.2539zm0,0"/>
        </g>
       </g>
      </g>
     </g>
    </g>
   </g>
  </g>
 </g>

</svg>